<?xml version="1.0" encoding="UTF-8"?>
<svg version="1.1" xmlns="http://www.w3.org/2000/svg" width="1024" height="1024">
<path d="M0 0 C337.92 0 675.84 0 1024 0 C1024 337.92 1024 675.84 1024 1024 C686.08 1024 348.16 1024 0 1024 C0 686.08 0 348.16 0 0 Z " fill="#22211F" transform="translate(0,0)"/>
<path d="M0 0 C0.96367996 -0.00807175 1.92735992 -0.01614349 2.92024231 -0.02445984 C4.96007521 -0.03824868 6.99993068 -0.04899392 9.03979492 -0.05688477 C11.08641525 -0.06831121 13.13300805 -0.08861134 15.17944336 -0.1184082 C29.2780728 -0.32310077 42.2666893 0.81941762 55.95703125 4.23828125 C57.12129639 4.52826744 57.12129639 4.52826744 58.30908203 4.82411194 C70.02381196 7.7716716 70.02381196 7.7716716 72.95703125 9.23828125 C70.23143352 19.82965679 66.90022219 30.23893466 63.64453125 40.67578125 C62.52214435 44.27824456 61.4011633 47.88114197 60.28125 51.484375 C60.00586395 52.36934662 59.73047791 53.25431824 59.44674683 54.16610718 C57.21577683 61.35524289 55.04873899 68.56270929 52.9259491 75.78453064 C51.76899033 79.68728548 50.56254247 83.48988671 48.95703125 87.23828125 C46.0400242 86.76111652 43.12343136 86.28162943 40.20703125 85.80078125 C38.96953125 85.5987207 38.96953125 85.5987207 37.70703125 85.39257812 C36.9078125 85.26044922 36.10859375 85.12832031 35.28515625 84.9921875 C34.55200195 84.87174072 33.81884766 84.75129395 33.06347656 84.62719727 C30.95703125 84.23828125 30.95703125 84.23828125 29.03564453 83.70385742 C16.0215435 80.78890667 -0.3662839 82.43527579 -13.04296875 86.23828125 C-14.09742188 86.50511719 -15.151875 86.77195312 -16.23828125 87.046875 C-31.01551277 91.05275102 -42.4429553 98.37450386 -53.04296875 109.23828125 C-53.63464844 109.80933594 -54.22632813 110.38039063 -54.8359375 110.96875 C-73.01711337 129.92981545 -74.47827485 158.92392306 -74.5546875 183.55859375 C-74.57158029 185.64038112 -74.5897365 187.72215857 -74.60908508 189.80392456 C-74.65609245 195.21894224 -74.68621777 200.63391975 -74.71252441 206.04907227 C-74.74258189 211.60050391 -74.78902397 217.1517976 -74.83398438 222.703125 C-74.9194552 233.54810417 -74.98704701 244.39311219 -75.04296875 255.23828125 C-59.91665742 255.15403228 -44.79044235 255.05877382 -29.6642828 254.95075417 C-22.63941007 254.9008387 -15.6145478 254.85439529 -8.58959961 254.81640625 C-1.80085716 254.77968445 4.98775883 254.73291574 11.7763958 254.68021774 C14.35689604 254.66179 16.937422 254.64663996 19.5179615 254.63493729 C36.77670812 254.55392008 52.88246472 253.57679066 69.76953125 249.86328125 C70.71505859 249.66734375 71.66058594 249.47140625 72.63476562 249.26953125 C78.35053702 248.02816784 83.5965987 246.34289153 88.9675293 244.02099609 C90.95703125 243.23828125 90.95703125 243.23828125 92.95703125 243.23828125 C92.66586426 243.81755371 92.37469727 244.39682617 92.07470703 244.99365234 C90.28143514 248.5950813 88.55895344 252.22967069 86.83203125 255.86328125 C86.43242187 256.70286377 86.0328125 257.54244629 85.62109375 258.4074707 C83.30469714 263.30186647 81.07223751 268.22136738 78.92504883 273.19213867 C72.41922015 288.20394865 65.07204118 301.16860789 53.95703125 313.23828125 C53.06757812 314.26695312 53.06757812 314.26695312 52.16015625 315.31640625 C38.96952013 329.81304595 16.9711196 336.4202528 -2.04296875 338.23828125 C-4.57839442 338.3199485 -7.11560697 338.3562107 -9.65234375 338.35180664 C-10.72211205 338.35202568 -10.72211205 338.35202568 -11.81349182 338.35224915 C-14.14001651 338.35155978 -16.46645828 338.34381378 -18.79296875 338.3359375 C-20.41821245 338.33406984 -22.04345671 338.33264758 -23.66870117 338.33164978 C-27.92325424 338.32785198 -32.17777257 338.31804538 -36.43231201 338.3069458 C-40.7829949 338.29667252 -45.13368345 338.29213954 -49.484375 338.28710938 C-58.0039221 338.27642038 -66.52344109 338.25937724 -75.04296875 338.23828125 C-75.04020337 339.28943336 -75.03743799 340.34058546 -75.03458881 341.42359066 C-74.96784679 367.05764798 -74.9186236 392.69169397 -74.88753223 418.32581997 C-74.87209519 430.72253454 -74.85106638 443.11919153 -74.81665039 455.51586914 C-74.78665095 466.32689821 -74.76737079 477.13788557 -74.76070327 487.94895512 C-74.75680882 493.66779406 -74.74772284 499.38651372 -74.72577858 505.10531425 C-74.70524651 510.50037073 -74.69916838 515.89526003 -74.70364571 521.29035187 C-74.70282792 523.25860315 -74.69696278 525.22686069 -74.68535233 527.1950779 C-74.53526275 553.9774661 -79.59128404 579.59536249 -99.0234375 599.4140625 C-115.64327751 615.47827364 -135.35522942 620.82029754 -158.04296875 622.23828125 C-158.04296875 528.51828125 -158.04296875 434.79828125 -158.04296875 338.23828125 C-180.15296875 338.23828125 -202.26296875 338.23828125 -225.04296875 338.23828125 C-225.04296875 310.84828125 -225.04296875 283.45828125 -225.04296875 255.23828125 C-202.93296875 255.23828125 -180.82296875 255.23828125 -158.04296875 255.23828125 C-158.089375 248.47714844 -158.13578125 241.71601563 -158.18359375 234.75 C-158.20408772 230.40688521 -158.22334724 226.063832 -158.23828125 221.72070312 C-158.26197862 214.86209372 -158.28967356 208.00370247 -158.34472656 201.14526367 C-158.78426226 144.87375159 -152.33644134 91.48135547 -113.04296875 48.23828125 C-112.2540625 47.36558594 -111.46515625 46.49289063 -110.65234375 45.59375 C-86.21945422 19.90685455 -51.29955783 6.80823797 -17.04296875 1.23828125 C-15.47530762 0.97349976 -15.47530762 0.97349976 -13.87597656 0.70336914 C-9.23410045 0.14013513 -4.67174141 0.03803476 0 0 Z " fill="#FEFEFE" transform="translate(420.04296875,196.76171875)"/>
<path d="M0 0 C1.4515488 0.27100361 2.9033742 0.54052975 4.35546875 0.80859375 C33.40418417 6.439695 61.18896767 18.46782306 85 36 C85.61875 36.45197754 86.2375 36.90395508 86.875 37.36962891 C105.8945128 51.40369291 122.17032184 68.13393527 135 88 C135.71542969 89.10214844 136.43085937 90.20429688 137.16796875 91.33984375 C149.70031708 111.17067114 158.58277464 132.59925091 164.1875 155.3125 C164.54485229 156.75085205 164.54485229 156.75085205 164.90942383 158.21826172 C169.17287307 176.33380857 170.57825472 194.04687268 170.5 212.625 C170.49856995 213.72395599 170.49713989 214.82291199 170.4956665 215.95516968 C170.44231211 232.53014963 169.47216939 247.96218065 165 264 C164.53538632 265.83403563 164.07314695 267.66867436 163.61328125 269.50390625 C155.02187319 302.60767542 138.80723125 332.58861418 116 358 C115.46697266 358.59474121 114.93394531 359.18948242 114.38476562 359.80224609 C107.09797715 367.88668824 99.76643436 375.49710887 91 382 C87.41288297 380.47321792 85.09753454 378.32696443 82.3125 375.625 C62.08289035 356.98255388 36.65690648 343.60986914 10 337 C10 336.34 10 335.68 10 335 C10.92039062 334.53851562 11.84078125 334.07703125 12.7890625 333.6015625 C44.24037719 317.52812216 67.49243736 292.4202376 78.80126953 258.60400391 C86.7047069 233.92383047 88.85746039 208.39916016 83 183 C82.71822312 181.66677791 82.43697504 180.33344396 82.15625 179 C75.22474166 147.53187328 56.0688793 117.91478561 28.97412109 100.22900391 C22.86106369 96.42327413 16.46419179 93.16046333 10 90 C9.14277344 89.56816406 8.28554688 89.13632812 7.40234375 88.69140625 C-20.13402115 76.21019676 -54.72194343 78.84621604 -82.453125 88.78515625 C-95.86695804 93.91946601 -108.42006802 101.28931823 -120.64428711 108.77026367 C-137.77549495 119.23074428 -155.27288035 126.97927146 -175 131 C-175.71559082 131.15098145 -176.43118164 131.30196289 -177.16845703 131.45751953 C-195.22899672 135.1042458 -213.67363298 134.29361939 -232 134 C-223.82876937 108.53336297 -210.10901476 85.49692872 -192.36181641 65.53369141 C-191.01407712 64.0158538 -189.68466958 62.48329085 -188.35546875 60.94921875 C-143.15599905 9.48982617 -66.59821918 -13.92577097 0 0 Z " fill="#FDFDFD" transform="translate(656,299)"/>
<path d="M0 0 C0.33 0 0.66 0 1 0 C1.02578125 1.00675781 1.0515625 2.01351562 1.078125 3.05078125 C2.41526004 40.29762007 17.86394547 74.47466804 45.125 100 C67.9466513 119.55015379 95.02744106 128.00630785 124.8125 128.375 C173.55962109 129.38845366 215.03263518 147.97380553 248.87109375 182.93359375 C253.73518431 188.07575457 258.18782559 193.45255335 262.5 199.0625 C278.94000435 220.33386444 299.68133709 233.24645676 326.16992188 237.51025391 C330.42701678 238.05460197 334.65396455 238.33859626 338.9375 238.5625 C340.10635742 238.62727539 340.10635742 238.62727539 341.29882812 238.69335938 C343.19907117 238.79828077 345.09951669 238.8995245 347 239 C351.85968148 256.62158011 356.6454832 274.26321705 361.31723022 291.93560791 C361.81315016 293.80837023 362.31121 295.68056722 362.81143188 297.55218506 C363.51703588 300.19469566 364.21460305 302.8392037 364.91015625 305.484375 C365.12222717 306.27262665 365.3342981 307.0608783 365.55279541 307.87301636 C366.53822132 311.65597595 367.26004294 315.08234373 367 319 C322.3791301 326.76015129 274.71551471 316.81862707 237.125 291.5625 C220.13658995 279.30750191 206.4430135 264.52280002 193.25 248.35546875 C182.55489146 235.29693221 172.37438754 227.12154984 157 220 C156.29230469 219.67 155.58460938 219.34 154.85546875 219 C144.72035939 214.76047713 133.96477542 213.87792809 123.125 213.625 C92.68516021 212.78162815 62.3445497 206.60952921 35 193 C34.27200195 192.64147949 33.54400391 192.28295898 32.79394531 191.91357422 C4.36423609 177.7861188 -21.64845148 155.98708974 -40 130 C-40.39461426 129.45504883 -40.78922852 128.91009766 -41.19580078 128.34863281 C-58.89533351 103.79560189 -78.73983286 66.2423809 -78 35 C-77.29093506 34.90501221 -76.58187012 34.81002441 -75.85131836 34.7121582 C-47.06124716 30.77934345 -22.46492714 23.44591739 -1.8984375 1.90625 C-1.27195312 1.2771875 -0.64546875 0.648125 0 0 Z " fill="#FDFDFD" transform="translate(491,519)"/>
<path d="M0 0 C0.66 0.33 1.32 0.66 2 1 C0.02 3.31 -1.96 5.62 -4 8 C-4.99 7.67 -5.98 7.34 -7 7 C-4.69 4.69 -2.38 2.38 0 0 Z " fill="#383837" transform="translate(772,656)"/>
<path d="M0 0 C0.99 0.495 0.99 0.495 2 1 C2.59355614 3.64860427 2.74209269 6.29197322 3 9 C2.01 9 1.02 9 0 9 C0 6.03 0 3.06 0 0 Z " fill="#2A2A29" transform="translate(413,562)"/>
</svg>
